<svg version="1.0" preserveAspectRatio="xMidYMid meet" viewBox="0.4635258358662614 0 21.83206686930091 22.036082474226802" zoomAndPan="magnify" xmlns:xlink="http://www.w3.org/1999/xlink" xmlns="http://www.w3.org/2000/svg" style="max-height: 500px" width="21.83206686930091" height="22.036082474226802"><defs><clipPath id="f27c6c71d7"><path clip-rule="nonzero" d="M 22.449219 0 L 44.460938 0 L 44.460938 22.011719 L 22.449219 22.011719 Z M 22.449219 0"/></clipPath><clipPath id="c949dc87af"><path clip-rule="nonzero" d="M 0.375 0 L 22.386719 0 L 22.386719 22.011719 L 0.375 22.011719 Z M 0.375 0"/></clipPath></defs><g clip-path="url(#f27c6c71d7)"><path fill-rule="nonzero" fill-opacity="1" d="M 43.84375 14.632812 C 44.238281 13.488281 44.460938 12.28125 44.460938 11.011719 C 44.460938 9.742188 44.238281 8.523438 43.84375 7.394531 C 43.828125 7.363281 43.828125 7.332031 43.8125 7.300781 C 42.289062 3.046875 38.214844 0.00390625 33.457031 0.00390625 C 28.699219 0.00390625 24.621094 3.046875 23.101562 7.285156 C 23.085938 7.316406 23.070312 7.347656 23.070312 7.378906 C 22.671875 8.523438 22.449219 9.742188 22.449219 11.011719 C 22.449219 12.28125 22.671875 13.503906 23.070312 14.632812 C 23.085938 14.664062 23.085938 14.695312 23.101562 14.726562 C 24.621094 18.976562 28.699219 22.007812 33.457031 22.007812 C 38.214844 22.007812 42.289062 18.960938 43.8125 14.726562 C 43.828125 14.695312 43.828125 14.664062 43.84375 14.632812 Z M 33.457031 20.4375 C 33.042969 20.4375 32.363281 19.675781 31.789062 17.980469 C 31.519531 17.152344 31.300781 16.21875 31.140625 15.203125 L 35.753906 15.203125 C 35.597656 16.21875 35.375 17.167969 35.105469 17.980469 C 34.550781 19.675781 33.867188 20.4375 33.457031 20.4375 Z M 30.949219 13.632812 C 30.871094 12.789062 30.839844 11.917969 30.839844 11.011719 C 30.839844 10.109375 30.886719 9.238281 30.949219 8.394531 L 35.945312 8.394531 C 36.023438 9.238281 36.054688 10.109375 36.054688 11.011719 C 36.054688 11.917969 36.007812 12.789062 35.945312 13.632812 Z M 24.019531 11.011719 C 24.019531 10.109375 24.148438 9.21875 24.386719 8.394531 L 29.363281 8.394531 C 29.285156 9.253906 29.253906 10.140625 29.253906 11.011719 C 29.253906 11.886719 29.285156 12.773438 29.363281 13.632812 L 24.402344 13.632812 C 24.164062 12.789062 24.019531 11.917969 24.019531 11.011719 Z M 33.457031 1.574219 C 33.867188 1.574219 34.550781 2.335938 35.121094 4.03125 C 35.390625 4.855469 35.613281 5.792969 35.769531 6.808594 L 31.140625 6.808594 C 31.300781 5.777344 31.519531 4.839844 31.789062 4.03125 C 32.363281 2.335938 33.027344 1.574219 33.457031 1.574219 Z M 37.53125 8.394531 L 42.511719 8.394531 C 42.75 9.21875 42.875 10.109375 42.875 11.011719 C 42.875 11.917969 42.75 12.804688 42.511719 13.632812 L 37.53125 13.632812 C 37.609375 12.773438 37.640625 11.886719 37.640625 11.011719 C 37.640625 10.125 37.609375 9.253906 37.53125 8.394531 Z M 41.890625 6.808594 L 37.355469 6.808594 C 37.070312 4.875 36.597656 3.144531 35.914062 1.90625 C 38.53125 2.621094 40.703125 4.429688 41.890625 6.808594 Z M 30.980469 1.90625 C 30.300781 3.144531 29.824219 4.875 29.539062 6.808594 L 25.019531 6.808594 C 26.207031 4.429688 28.367188 2.621094 30.980469 1.90625 Z M 25.019531 15.203125 L 29.554688 15.203125 C 29.839844 17.136719 30.316406 18.867188 30.996094 20.105469 C 28.367188 19.40625 26.207031 17.597656 25.019531 15.203125 Z M 35.914062 20.121094 C 36.597656 18.882812 37.070312 17.152344 37.355469 15.21875 L 41.890625 15.21875 C 40.703125 17.597656 38.53125 19.40625 35.914062 20.121094 Z M 35.914062 20.121094" fill="#ffffff"/></g><path fill-rule="nonzero" fill-opacity="1" d="M 11.382812 8.804688 C 11.1875 8.804688 11.003906 8.839844 10.824219 8.914062 C 10.644531 8.988281 10.488281 9.09375 10.351562 9.234375 C 10.214844 9.371094 10.109375 9.527344 10.035156 9.707031 C 9.960938 9.886719 9.925781 10.074219 9.925781 10.269531 C 9.925781 10.464844 9.960938 10.652344 10.035156 10.832031 C 10.109375 11.011719 10.214844 11.167969 10.351562 11.308594 C 10.488281 11.445312 10.644531 11.550781 10.824219 11.625 C 11.003906 11.699219 11.1875 11.738281 11.382812 11.738281 C 11.574219 11.738281 11.761719 11.699219 11.941406 11.625 C 12.117188 11.550781 12.277344 11.445312 12.414062 11.308594 C 12.550781 11.167969 12.65625 11.011719 12.730469 10.832031 C 12.804688 10.652344 12.839844 10.464844 12.839844 10.269531 C 12.839844 10.074219 12.804688 9.886719 12.730469 9.707031 C 12.65625 9.53125 12.550781 9.371094 12.414062 9.234375 C 12.277344 9.097656 12.117188 8.988281 11.941406 8.914062 C 11.761719 8.839844 11.574219 8.804688 11.382812 8.804688 Z M 11.382812 11.003906 C 11.179688 11.003906 11.007812 10.929688 10.867188 10.789062 C 10.726562 10.644531 10.652344 10.472656 10.652344 10.269531 C 10.652344 10.066406 10.726562 9.894531 10.867188 9.75 C 11.007812 9.609375 11.179688 9.535156 11.382812 9.535156 C 11.582031 9.535156 11.753906 9.609375 11.898438 9.75 C 12.039062 9.894531 12.113281 10.066406 12.113281 10.269531 C 12.109375 10.472656 12.039062 10.644531 11.898438 10.789062 C 11.753906 10.929688 11.582031 11.003906 11.382812 11.003906 Z M 11.382812 11.003906" fill="#000000"/><g clip-path="url(#c949dc87af)"><path fill-rule="nonzero" fill-opacity="1" d="M 21.777344 14.539062 C 20.652344 13.761719 17.304688 11.386719 17.304688 11.386719 C 17.515625 11.425781 17.71875 11.40625 17.917969 11.324219 C 18.117188 11.242188 18.277344 11.113281 18.402344 10.9375 C 18.746094 10.457031 18.625 9.734375 18.132812 9.40625 L 12.476562 5.417969 L 12.476562 4.21875 L 12.839844 4.21875 C 12.984375 4.21875 13.125 4.191406 13.257812 4.136719 C 13.390625 4.082031 13.511719 4 13.613281 3.898438 C 13.714844 3.796875 13.792969 3.675781 13.851562 3.542969 C 13.90625 3.40625 13.933594 3.265625 13.933594 3.121094 C 13.933594 2.976562 13.90625 2.835938 13.851562 2.699219 C 13.792969 2.566406 13.714844 2.445312 13.613281 2.34375 C 13.511719 2.238281 13.390625 2.160156 13.257812 2.105469 C 13.125 2.046875 12.984375 2.019531 12.839844 2.019531 L 12.476562 2.019531 L 12.476562 1.105469 C 12.476562 0.957031 12.449219 0.816406 12.390625 0.683594 C 12.335938 0.546875 12.257812 0.429688 12.15625 0.328125 C 12.054688 0.222656 11.933594 0.144531 11.800781 0.0898438 C 11.667969 0.03125 11.527344 0.00390625 11.382812 0.00390625 C 11.238281 0.00390625 11.097656 0.03125 10.964844 0.0898438 C 10.832031 0.144531 10.710938 0.222656 10.609375 0.328125 C 10.507812 0.429688 10.429688 0.546875 10.371094 0.683594 C 10.316406 0.816406 10.289062 0.957031 10.289062 1.105469 L 10.289062 2.019531 L 9.925781 2.019531 C 9.78125 2.019531 9.640625 2.046875 9.507812 2.105469 C 9.375 2.160156 9.253906 2.238281 9.152344 2.34375 C 9.050781 2.445312 8.972656 2.566406 8.914062 2.699219 C 8.859375 2.835938 8.832031 2.976562 8.832031 3.121094 C 8.832031 3.265625 8.859375 3.40625 8.914062 3.542969 C 8.972656 3.675781 9.050781 3.796875 9.152344 3.898438 C 9.253906 4 9.375 4.082031 9.507812 4.136719 C 9.640625 4.191406 9.78125 4.21875 9.925781 4.21875 L 10.289062 4.21875 L 10.289062 5.417969 L 4.632812 9.40625 C 4.140625 9.734375 4.019531 10.457031 4.363281 10.9375 C 4.488281 11.113281 4.648438 11.242188 4.847656 11.324219 C 5.046875 11.40625 5.25 11.425781 5.460938 11.386719 C 5.460938 11.386719 2.113281 13.761719 0.988281 14.539062 C 0.503906 14.871094 0.375 15.589844 0.71875 16.070312 C 0.804688 16.195312 0.910156 16.292969 1.035156 16.371094 C 1.164062 16.453125 1.296875 16.503906 1.445312 16.527344 C 1.589844 16.550781 1.738281 16.542969 1.878906 16.507812 C 2.023438 16.472656 2.15625 16.410156 2.273438 16.320312 L 2.273438 21.636719 C 2.273438 21.738281 2.308594 21.824219 2.378906 21.894531 C 2.453125 21.964844 2.539062 22.003906 2.636719 22.003906 L 20.125 22.003906 C 20.226562 22.003906 20.3125 21.964844 20.382812 21.894531 C 20.457031 21.824219 20.492188 21.738281 20.492188 21.636719 L 20.492188 16.320312 C 20.609375 16.410156 20.742188 16.472656 20.886719 16.507812 C 21.027344 16.542969 21.175781 16.550781 21.320312 16.527344 C 21.46875 16.503906 21.601562 16.453125 21.730469 16.371094 C 21.855469 16.292969 21.960938 16.195312 22.046875 16.070312 C 22.390625 15.589844 22.261719 14.871094 21.777344 14.539062 Z M 9.925781 3.488281 C 9.824219 3.488281 9.738281 3.453125 9.667969 3.378906 C 9.597656 3.308594 9.5625 3.222656 9.5625 3.121094 C 9.5625 3.019531 9.597656 2.933594 9.667969 2.863281 C 9.738281 2.789062 9.824219 2.753906 9.925781 2.753906 L 10.652344 2.753906 C 10.753906 2.753906 10.839844 2.71875 10.910156 2.648438 C 10.984375 2.574219 11.019531 2.488281 11.019531 2.386719 L 11.019531 1.105469 C 11.019531 1.003906 11.054688 0.917969 11.125 0.84375 C 11.195312 0.773438 11.28125 0.738281 11.382812 0.738281 C 11.484375 0.738281 11.570312 0.773438 11.640625 0.84375 C 11.710938 0.917969 11.746094 1.003906 11.746094 1.105469 L 11.746094 2.386719 C 11.746094 2.488281 11.78125 2.574219 11.855469 2.648438 C 11.925781 2.71875 12.011719 2.753906 12.113281 2.753906 L 12.839844 2.753906 C 12.941406 2.753906 13.027344 2.789062 13.097656 2.863281 C 13.167969 2.933594 13.203125 3.019531 13.203125 3.121094 C 13.203125 3.222656 13.167969 3.308594 13.097656 3.378906 C 13.027344 3.453125 12.941406 3.488281 12.839844 3.488281 L 12.113281 3.488281 C 12.011719 3.488281 11.925781 3.523438 11.855469 3.59375 C 11.78125 3.667969 11.746094 3.753906 11.746094 3.855469 L 11.746094 4.957031 C 11.503906 4.871094 11.261719 4.871094 11.019531 4.957031 L 11.019531 3.855469 C 11.019531 3.753906 10.984375 3.667969 10.910156 3.59375 C 10.839844 3.523438 10.753906 3.488281 10.652344 3.488281 Z M 4.960938 10.519531 C 4.902344 10.433594 4.882812 10.34375 4.898438 10.242188 C 4.917969 10.144531 4.96875 10.066406 5.046875 10.003906 C 5.046875 10.003906 9.640625 6.769531 11.175781 5.691406 C 11.3125 5.59375 11.453125 5.59375 11.589844 5.691406 C 13.125 6.769531 17.714844 10.003906 17.714844 10.003906 C 17.800781 10.0625 17.851562 10.144531 17.867188 10.242188 C 17.886719 10.34375 17.867188 10.4375 17.808594 10.519531 C 17.75 10.601562 17.671875 10.652344 17.570312 10.671875 C 17.472656 10.6875 17.378906 10.667969 17.296875 10.609375 C 17.296875 10.609375 13.332031 7.8125 12.011719 6.878906 C 11.820312 6.75 11.613281 6.683594 11.382812 6.683594 C 11.152344 6.683594 10.945312 6.75 10.753906 6.878906 C 9.433594 7.8125 5.46875 10.609375 5.46875 10.609375 C 5.386719 10.664062 5.292969 10.6875 5.195312 10.667969 C 5.097656 10.652344 5.015625 10.601562 4.960938 10.519531 Z M 5.917969 21.269531 L 5.007812 21.269531 L 5.007812 18.117188 C 5.007812 17.769531 5.441406 17.222656 5.917969 16.757812 Z M 5.917969 15.777344 C 5.449219 16.160156 4.277344 17.207031 4.277344 18.117188 L 4.277344 21.269531 L 3.003906 21.269531 L 3.003906 15.804688 L 5.917969 13.75 Z M 5.917969 12.855469 C 5.917969 12.855469 2.851562 15.023438 1.824219 15.742188 C 1.433594 16.015625 1.015625 15.414062 1.40625 15.136719 C 2.53125 14.339844 5.917969 11.960938 5.917969 11.960938 Z M 13.203125 21.269531 L 9.5625 21.269531 L 9.5625 16.640625 C 9.5625 15.917969 10.597656 14.75 11.382812 14.050781 C 12.167969 14.75 13.203125 15.917969 13.203125 16.640625 Z M 16.121094 21.269531 L 13.933594 21.269531 L 13.933594 16.640625 C 13.933594 15.238281 11.851562 13.480469 11.613281 13.285156 C 11.460938 13.160156 11.304688 13.160156 11.152344 13.285156 C 10.914062 13.480469 8.832031 15.238281 8.832031 16.640625 L 8.832031 21.269531 L 6.644531 21.269531 L 6.644531 10.671875 L 11.175781 7.480469 C 11.3125 7.382812 11.453125 7.382812 11.589844 7.480469 L 16.121094 10.671875 Z M 17.757812 21.269531 L 16.847656 21.269531 L 16.847656 16.757812 C 17.324219 17.222656 17.757812 17.769531 17.757812 18.117188 Z M 19.761719 21.269531 L 18.488281 21.269531 L 18.488281 18.117188 C 18.488281 17.207031 17.316406 16.160156 16.847656 15.777344 L 16.847656 13.75 L 19.761719 15.804688 Z M 20.941406 15.742188 C 19.914062 15.023438 16.847656 12.855469 16.847656 12.855469 L 16.847656 11.960938 C 16.847656 11.960938 20.234375 14.339844 21.359375 15.136719 C 21.75 15.414062 21.332031 16.015625 20.941406 15.742188 Z M 20.941406 15.742188" fill="#000000"/></g></svg>