<svg version="1.0" preserveAspectRatio="xMidYMid meet" viewBox="16.19187994542974 0 15.847203274215554 22.005" zoomAndPan="magnify" xmlns:xlink="http://www.w3.org/1999/xlink" xmlns="http://www.w3.org/2000/svg" style="max-height: 500px" width="15.847203274215554" height="22.005"><defs><clipPath id="77f3b68f96"><path clip-rule="nonzero" d="M 0.359375 0 L 15.03125 0 L 15.03125 22 L 0.359375 22 Z M 0.359375 0"/></clipPath><clipPath id="db4b81820b"><path clip-rule="nonzero" d="M 16.046875 0 L 32 0 L 32 22 L 16.046875 22 Z M 16.046875 0"/></clipPath></defs><g clip-path="url(#77f3b68f96)"><path fill-rule="nonzero" fill-opacity="1" d="M 7.695312 0.128906 C 3.640625 0.128906 0.355469 3.371094 0.355469 7.375 C 0.355469 11.378906 7.695312 21.867188 7.695312 21.867188 C 7.695312 21.867188 15.035156 11.378906 15.035156 7.375 C 15.035156 3.371094 11.75 0.128906 7.695312 0.128906 Z M 7.695312 10.808594 C 5.5625 10.808594 3.832031 9.101562 3.832031 6.992188 C 3.832031 4.886719 5.5625 3.179688 7.695312 3.179688 C 9.828125 3.179688 11.558594 4.886719 11.558594 6.992188 C 11.558594 9.101562 9.828125 10.808594 7.695312 10.808594 Z M 7.695312 10.808594" fill="#000000"/></g><g clip-path="url(#db4b81820b)"><path fill-rule="nonzero" fill-opacity="1" d="M 24.125 21.929688 C 23.953125 21.929688 23.808594 21.867188 23.695312 21.738281 C 23.390625 21.402344 16.273438 13.460938 16.273438 7.847656 C 16.273438 7.332031 16.324219 6.824219 16.425781 6.316406 C 16.527344 5.8125 16.675781 5.320312 16.871094 4.847656 C 17.070312 4.371094 17.3125 3.917969 17.597656 3.488281 C 17.882812 3.0625 18.210938 2.664062 18.574219 2.300781 C 18.9375 1.9375 19.335938 1.609375 19.765625 1.324219 C 20.191406 1.039062 20.644531 0.796875 21.121094 0.601562 C 21.597656 0.402344 22.085938 0.253906 22.59375 0.152344 C 23.097656 0.0546875 23.609375 0.00390625 24.125 0.00390625 C 24.640625 0.00390625 25.148438 0.0546875 25.65625 0.152344 C 26.160156 0.253906 26.652344 0.402344 27.125 0.601562 C 27.601562 0.796875 28.054688 1.039062 28.484375 1.324219 C 28.910156 1.609375 29.308594 1.9375 29.671875 2.300781 C 30.035156 2.664062 30.363281 3.0625 30.648438 3.488281 C 30.933594 3.917969 31.175781 4.371094 31.375 4.847656 C 31.570312 5.320312 31.71875 5.8125 31.820312 6.316406 C 31.921875 6.824219 31.972656 7.332031 31.972656 7.847656 C 31.972656 13.460938 24.855469 21.402344 24.550781 21.738281 C 24.4375 21.867188 24.292969 21.929688 24.125 21.929688 Z M 24.125 1.152344 C 23.683594 1.15625 23.25 1.199219 22.816406 1.285156 C 22.386719 1.371094 21.96875 1.496094 21.5625 1.664062 C 21.15625 1.835938 20.769531 2.039062 20.40625 2.285156 C 20.039062 2.527344 19.703125 2.808594 19.390625 3.117188 C 19.082031 3.429688 18.804688 3.765625 18.558594 4.132812 C 18.316406 4.496094 18.109375 4.882812 17.941406 5.289062 C 17.773438 5.695312 17.644531 6.113281 17.558594 6.542969 C 17.472656 6.972656 17.429688 7.410156 17.429688 7.847656 C 17.429688 12.265625 22.585938 18.660156 24.125 20.472656 C 25.660156 18.660156 30.816406 12.265625 30.816406 7.847656 C 30.816406 7.410156 30.773438 6.972656 30.6875 6.542969 C 30.601562 6.113281 30.476562 5.695312 30.304688 5.289062 C 30.136719 4.882812 29.929688 4.496094 29.6875 4.132812 C 29.441406 3.765625 29.164062 3.429688 28.855469 3.117188 C 28.542969 2.808594 28.207031 2.527344 27.839844 2.285156 C 27.476562 2.039062 27.089844 1.835938 26.683594 1.664062 C 26.277344 1.496094 25.859375 1.371094 25.429688 1.285156 C 25 1.199219 24.5625 1.15625 24.125 1.152344 Z M 24.125 11.023438 C 23.703125 11.023438 23.296875 10.941406 22.910156 10.78125 C 22.519531 10.621094 22.175781 10.390625 21.878906 10.09375 C 21.582031 9.796875 21.351562 9.453125 21.191406 9.0625 C 21.03125 8.675781 20.949219 8.269531 20.949219 7.847656 C 20.949219 7.429688 21.03125 7.023438 21.191406 6.632812 C 21.351562 6.246094 21.582031 5.902344 21.878906 5.605469 C 22.175781 5.308594 22.519531 5.078125 22.910156 4.917969 C 23.296875 4.753906 23.703125 4.675781 24.125 4.675781 C 24.542969 4.675781 24.949219 4.753906 25.339844 4.917969 C 25.726562 5.078125 26.070312 5.308594 26.367188 5.605469 C 26.664062 5.902344 26.894531 6.246094 27.054688 6.632812 C 27.21875 7.023438 27.296875 7.429688 27.296875 7.847656 C 27.296875 8.269531 27.214844 8.675781 27.054688 9.0625 C 26.894531 9.453125 26.664062 9.792969 26.367188 10.09375 C 26.070312 10.390625 25.726562 10.621094 25.335938 10.78125 C 24.949219 10.941406 24.542969 11.023438 24.125 11.023438 Z M 24.125 5.828125 C 23.855469 5.828125 23.597656 5.878906 23.351562 5.984375 C 23.101562 6.085938 22.882812 6.230469 22.695312 6.421875 C 22.503906 6.609375 22.359375 6.828125 22.257812 7.074219 C 22.15625 7.324219 22.105469 7.582031 22.105469 7.847656 C 22.105469 8.117188 22.15625 8.375 22.257812 8.621094 C 22.359375 8.871094 22.503906 9.085938 22.695312 9.277344 C 22.882812 9.464844 23.101562 9.613281 23.351562 9.714844 C 23.597656 9.816406 23.855469 9.867188 24.125 9.867188 C 24.390625 9.867188 24.648438 9.816406 24.898438 9.714844 C 25.144531 9.613281 25.363281 9.464844 25.550781 9.277344 C 25.742188 9.085938 25.886719 8.871094 25.988281 8.621094 C 26.09375 8.375 26.144531 8.117188 26.144531 7.847656 C 26.144531 7.582031 26.089844 7.324219 25.988281 7.078125 C 25.886719 6.828125 25.742188 6.609375 25.550781 6.421875 C 25.363281 6.230469 25.144531 6.085938 24.894531 5.984375 C 24.648438 5.878906 24.390625 5.828125 24.125 5.828125 Z M 24.125 5.828125" fill="#ffffff"/></g></svg>