<svg version="1.0" preserveAspectRatio="xMidYMid meet" viewBox="0 0 22.632978723404253 22.06225680933852" zoomAndPan="magnify" xmlns:xlink="http://www.w3.org/1999/xlink" xmlns="http://www.w3.org/2000/svg" style="max-height: 500px" width="22.632978723404253" height="22.06225680933852"><defs><clipPath id="ff639d7737"><path clip-rule="nonzero" d="M 0.570312 0 L 22.496094 0 L 22.496094 21.925781 L 0.570312 21.925781 Z M 0.570312 0"/></clipPath><clipPath id="21fcece1a8"><path clip-rule="nonzero" d="M 23.976562 0 L 40 0 L 40 22 L 23.976562 22 Z M 23.976562 0"/></clipPath><clipPath id="821e863d04"><path clip-rule="nonzero" d="M 69 0 L 84.871094 0 L 84.871094 22 L 69 22 Z M 69 0"/></clipPath></defs><g clip-path="url(#ff639d7737)"><path fill-rule="nonzero" fill-opacity="1" d="M 5.046875 1.117188 C 4.222656 1.328125 3.570312 1.621094 3.074219 1.980469 C 2.011719 2.746094 1.613281 3.84375 1.644531 5.089844 C 1.683594 6.417969 2.199219 7.917969 2.941406 9.378906 C 4.136719 11.734375 5.910156 13.957031 7.242188 15.238281 L 7.246094 15.234375 C 7.261719 15.25 7.273438 15.265625 7.285156 15.28125 C 8.570312 16.609375 10.78125 18.367188 13.117188 19.558594 C 14.582031 20.300781 16.082031 20.816406 17.410156 20.851562 C 18.652344 20.886719 19.753906 20.484375 20.515625 19.425781 C 20.875 18.925781 21.167969 18.277344 21.378906 17.449219 C 21.628906 16.476562 20.289062 15.921875 18.90625 15.570312 C 18.230469 15.398438 17.578125 15.28125 17.039062 15.183594 C 16.835938 15.144531 16.648438 15.113281 16.484375 15.082031 C 15.039062 17.039062 13.261719 16.390625 13.0625 16.308594 C 11.601562 15.875 10.097656 14.882812 8.855469 13.640625 C 7.613281 12.398438 6.621094 10.894531 6.1875 9.4375 C 6.105469 9.234375 5.460938 7.457031 7.417969 6.011719 C 7.386719 5.847656 7.351562 5.660156 7.316406 5.460938 C 7.21875 4.917969 7.101562 4.265625 6.929688 3.589844 C 6.578125 2.210938 6.023438 0.871094 5.046875 1.117188 Z M 2.445312 1.109375 C 3.054688 0.671875 3.824219 0.316406 4.78125 0.0742188 C 6.625 -0.394531 7.488281 1.425781 7.972656 3.328125 C 8.140625 3.988281 8.265625 4.6875 8.371094 5.269531 C 8.425781 5.589844 8.476562 5.867188 8.53125 6.101562 C 8.597656 6.328125 8.511719 6.578125 8.304688 6.707031 L 8.015625 6.253906 L 8.300781 6.707031 C 6.726562 7.703125 7.121094 8.867188 7.179688 9.015625 C 7.191406 9.039062 7.199219 9.066406 7.207031 9.09375 C 7.582031 10.382812 8.480469 11.742188 9.617188 12.878906 C 10.742188 14.003906 12.085938 14.898438 13.359375 15.277344 C 13.398438 15.285156 13.433594 15.296875 13.464844 15.3125 C 13.476562 15.316406 14.714844 15.867188 15.769531 14.226562 C 15.882812 14.019531 16.125 13.902344 16.367188 13.957031 L 16.246094 14.484375 L 16.367188 13.957031 C 16.609375 14.015625 16.898438 14.066406 17.226562 14.125 C 17.808594 14.230469 18.511719 14.359375 19.171875 14.527344 C 21.074219 15.011719 22.890625 15.875 22.421875 17.714844 C 22.179688 18.671875 21.828125 19.441406 21.386719 20.050781 C 20.386719 21.441406 18.972656 21.96875 17.382812 21.925781 C 15.878906 21.882812 14.222656 21.324219 12.632812 20.515625 C 10.179688 19.269531 7.859375 17.425781 6.511719 16.027344 C 6.507812 16.023438 6.503906 16.019531 6.5 16.015625 L 6.5 16.011719 L 6.492188 16.003906 C 5.09375 14.660156 3.234375 12.328125 1.980469 9.863281 C 1.175781 8.273438 0.613281 6.621094 0.574219 5.113281 C 0.53125 3.527344 1.054688 2.113281 2.445312 1.109375" fill="#fcde0a"/></g><g clip-path="url(#21fcece1a8)"><path fill-rule="nonzero" fill-opacity="1" d="M 38.910156 10.15625 C 39.101562 9.492188 39.195312 8.777344 39.195312 8.0625 C 39.195312 3.59375 35.773438 0.0234375 31.585938 0.0234375 C 27.398438 0.0234375 23.976562 3.59375 23.976562 8.015625 C 23.976562 8.730469 24.070312 9.441406 24.261719 10.109375 C 24.453125 10.917969 24.785156 11.632812 25.210938 12.296875 L 30.777344 21.429688 C 30.96875 21.714844 31.253906 21.90625 31.585938 21.90625 C 31.917969 21.90625 32.203125 21.714844 32.394531 21.429688 C 32.394531 21.429688 38.007812 12.34375 38.007812 12.296875 C 38.433594 11.632812 38.722656 10.917969 38.910156 10.15625 Z M 36.390625 11.347656 L 31.585938 19.148438 C 31.585938 19.148438 26.78125 11.347656 26.78125 11.347656 C 26.164062 10.347656 25.878906 9.15625 25.878906 8.015625 C 25.878906 4.6875 28.445312 1.929688 31.585938 1.929688 C 34.726562 1.929688 37.292969 4.6875 37.292969 8.015625 C 37.292969 8.539062 37.246094 9.917969 36.390625 11.347656 Z M 36.390625 11.347656" fill="#ffffff"/></g><path fill-rule="nonzero" fill-opacity="1" d="M 31.585938 4.304688 C 29.730469 4.304688 28.257812 5.78125 28.257812 7.636719 C 28.257812 9.492188 29.730469 10.964844 31.585938 10.964844 C 33.441406 10.964844 34.914062 9.492188 34.914062 7.636719 C 34.914062 5.78125 33.441406 4.304688 31.585938 4.304688 Z M 31.585938 9.0625 C 30.777344 9.0625 30.160156 8.445312 30.160156 7.636719 C 30.160156 6.828125 30.777344 6.207031 31.585938 6.207031 C 32.394531 6.207031 33.011719 6.828125 33.011719 7.636719 C 33.011719 8.445312 32.394531 9.0625 31.585938 9.0625 Z M 31.585938 9.0625" fill="#ffffff"/><g clip-path="url(#821e863d04)"><path fill-rule="nonzero" fill-opacity="1" d="M 77.25 0.0234375 C 73.0625 0.0234375 69.636719 3.59375 69.636719 8.015625 C 69.636719 8.730469 69.734375 9.441406 69.921875 10.109375 C 70.113281 10.917969 70.445312 11.632812 70.875 12.296875 L 76.441406 21.429688 C 76.628906 21.714844 76.914062 21.90625 77.25 21.90625 C 77.582031 21.90625 77.867188 21.714844 78.058594 21.429688 C 78.058594 21.429688 83.671875 12.34375 83.671875 12.296875 C 84.097656 11.632812 84.382812 10.871094 84.621094 10.109375 C 84.8125 9.441406 84.90625 8.730469 84.90625 8.015625 C 84.859375 3.59375 81.433594 0.0234375 77.25 0.0234375 Z M 82.054688 11.347656 L 77.25 19.148438 C 77.25 19.148438 72.445312 11.347656 72.445312 11.347656 C 71.828125 10.347656 71.539062 9.15625 71.539062 8.015625 C 71.539062 4.640625 74.109375 1.929688 77.25 1.929688 C 80.386719 1.929688 82.957031 4.6875 82.957031 8.015625 C 82.957031 8.539062 82.910156 9.917969 82.054688 11.347656 Z M 82.054688 11.347656" fill="#ffffff"/></g><path fill-rule="nonzero" fill-opacity="1" d="M 77.25 4.304688 C 75.394531 4.304688 73.917969 5.78125 73.917969 7.636719 C 73.917969 9.492188 75.394531 10.964844 77.25 10.964844 C 79.105469 10.964844 80.578125 9.492188 80.578125 7.636719 C 80.578125 5.78125 79.105469 4.304688 77.25 4.304688 Z M 77.25 9.0625 C 76.441406 9.0625 75.820312 8.445312 75.820312 7.636719 C 75.820312 6.828125 76.441406 6.207031 77.25 6.207031 C 78.058594 6.207031 78.675781 6.828125 78.675781 7.636719 C 78.675781 8.445312 78.058594 9.0625 77.25 9.0625 Z M 77.25 9.0625" fill="#ffffff"/><path fill-rule="nonzero" fill-opacity="1" d="M 71.589844 17.765625 L 69.257812 16.339844 C 68.828125 16.054688 68.210938 16.199219 67.925781 16.671875 C 67.734375 16.957031 67.734375 17.339844 67.925781 17.671875 L 40.910156 17.671875 C 41.097656 17.386719 41.097656 17.007812 40.910156 16.671875 C 40.625 16.246094 40.050781 16.101562 39.578125 16.339844 L 37.246094 17.765625 C 36.960938 17.957031 36.816406 18.242188 36.816406 18.574219 C 36.816406 18.910156 37.007812 19.195312 37.292969 19.382812 L 39.625 20.8125 C 40.050781 21.097656 40.671875 20.953125 40.957031 20.476562 C 41.148438 20.191406 41.148438 19.8125 40.957031 19.527344 L 67.972656 19.527344 C 67.78125 19.8125 67.78125 20.191406 67.972656 20.476562 C 68.257812 20.90625 68.828125 21.050781 69.304688 20.8125 L 71.636719 19.382812 C 71.921875 19.195312 72.113281 18.910156 72.113281 18.574219 C 72.015625 18.242188 71.828125 17.957031 71.589844 17.765625 Z M 71.589844 17.765625" fill="#ffffff"/><path fill-rule="nonzero" fill-opacity="1" d="M 43.953125 10.488281 C 43.953125 10.753906 43.859375 10.976562 43.675781 11.164062 C 43.488281 11.347656 43.265625 11.441406 43 11.441406 C 42.738281 11.441406 42.515625 11.347656 42.328125 11.164062 C 42.144531 10.976562 42.050781 10.753906 42.050781 10.488281 C 42.050781 10.226562 42.144531 10.003906 42.328125 9.816406 C 42.515625 9.632812 42.738281 9.539062 43 9.539062 C 43.265625 9.539062 43.488281 9.632812 43.675781 9.816406 C 43.859375 10.003906 43.953125 10.226562 43.953125 10.488281 Z M 43.953125 10.488281" fill="#ffffff"/><path fill-rule="nonzero" fill-opacity="1" d="M 47.757812 10.488281 C 47.757812 10.753906 47.664062 10.976562 47.480469 11.164062 C 47.292969 11.347656 47.070312 11.441406 46.808594 11.441406 C 46.542969 11.441406 46.320312 11.347656 46.132812 11.164062 C 45.949219 10.976562 45.855469 10.753906 45.855469 10.488281 C 45.855469 10.226562 45.949219 10.003906 46.132812 9.816406 C 46.320312 9.632812 46.542969 9.539062 46.808594 9.539062 C 47.070312 9.539062 47.292969 9.632812 47.480469 9.816406 C 47.664062 10.003906 47.757812 10.226562 47.757812 10.488281 Z M 47.757812 10.488281" fill="#ffffff"/><path fill-rule="nonzero" fill-opacity="1" d="M 51.5625 10.488281 C 51.5625 10.753906 51.46875 10.976562 51.285156 11.164062 C 51.097656 11.347656 50.875 11.441406 50.613281 11.441406 C 50.347656 11.441406 50.125 11.347656 49.9375 11.164062 C 49.753906 10.976562 49.660156 10.753906 49.660156 10.488281 C 49.660156 10.226562 49.753906 10.003906 49.9375 9.816406 C 50.125 9.632812 50.347656 9.539062 50.613281 9.539062 C 50.875 9.539062 51.097656 9.632812 51.285156 9.816406 C 51.46875 10.003906 51.5625 10.226562 51.5625 10.488281 Z M 51.5625 10.488281" fill="#ffffff"/><path fill-rule="nonzero" fill-opacity="1" d="M 55.367188 10.488281 C 55.367188 10.753906 55.277344 10.976562 55.089844 11.164062 C 54.902344 11.347656 54.679688 11.441406 54.417969 11.441406 C 54.15625 11.441406 53.929688 11.347656 53.746094 11.164062 C 53.558594 10.976562 53.464844 10.753906 53.464844 10.488281 C 53.464844 10.226562 53.558594 10.003906 53.746094 9.816406 C 53.929688 9.632812 54.15625 9.539062 54.417969 9.539062 C 54.679688 9.539062 54.902344 9.632812 55.089844 9.816406 C 55.277344 10.003906 55.367188 10.226562 55.367188 10.488281 Z M 55.367188 10.488281" fill="#ffffff"/><path fill-rule="nonzero" fill-opacity="1" d="M 59.175781 10.488281 C 59.175781 10.753906 59.082031 10.976562 58.894531 11.164062 C 58.710938 11.347656 58.484375 11.441406 58.222656 11.441406 C 57.960938 11.441406 57.734375 11.347656 57.550781 11.164062 C 57.363281 10.976562 57.269531 10.753906 57.269531 10.488281 C 57.269531 10.226562 57.363281 10.003906 57.550781 9.816406 C 57.734375 9.632812 57.960938 9.539062 58.222656 9.539062 C 58.484375 9.539062 58.710938 9.632812 58.894531 9.816406 C 59.082031 10.003906 59.175781 10.226562 59.175781 10.488281 Z M 59.175781 10.488281" fill="#ffffff"/><path fill-rule="nonzero" fill-opacity="1" d="M 62.980469 10.488281 C 62.980469 10.753906 62.886719 10.976562 62.699219 11.164062 C 62.515625 11.347656 62.289062 11.441406 62.027344 11.441406 C 61.765625 11.441406 61.539062 11.347656 61.355469 11.164062 C 61.167969 10.976562 61.078125 10.753906 61.078125 10.488281 C 61.078125 10.226562 61.167969 10.003906 61.355469 9.816406 C 61.539062 9.632812 61.765625 9.539062 62.027344 9.539062 C 62.289062 9.539062 62.515625 9.632812 62.699219 9.816406 C 62.886719 10.003906 62.980469 10.226562 62.980469 10.488281 Z M 62.980469 10.488281" fill="#ffffff"/><path fill-rule="nonzero" fill-opacity="1" d="M 66.785156 10.488281 C 66.785156 10.753906 66.691406 10.976562 66.503906 11.164062 C 66.320312 11.347656 66.09375 11.441406 65.832031 11.441406 C 65.570312 11.441406 65.347656 11.347656 65.160156 11.164062 C 64.972656 10.976562 64.882812 10.753906 64.882812 10.488281 C 64.882812 10.226562 64.972656 10.003906 65.160156 9.816406 C 65.347656 9.632812 65.570312 9.539062 65.832031 9.539062 C 66.09375 9.539062 66.320312 9.632812 66.503906 9.816406 C 66.691406 10.003906 66.785156 10.226562 66.785156 10.488281 Z M 66.785156 10.488281" fill="#ffffff"/></svg>