<svg version="1.0" preserveAspectRatio="xMidYMid meet" viewBox="22.341481762917933 0 22.20288753799392 22.036082474226802" zoomAndPan="magnify" xmlns:xlink="http://www.w3.org/1999/xlink" xmlns="http://www.w3.org/2000/svg" style="max-height: 500px" width="22.20288753799392" height="22.036082474226802"><defs><clipPath id="024a9dbacc"><path clip-rule="nonzero" d="M 22.449219 0 L 44.460938 0 L 44.460938 22 L 22.449219 22 Z M 22.449219 0"/></clipPath><clipPath id="1ce7fae0d2"><path clip-rule="nonzero" d="M 0.375 0 L 22.386719 0 L 22.386719 22 L 0.375 22 Z M 0.375 0"/></clipPath></defs><g clip-path="url(#024a9dbacc)"><path fill-rule="nonzero" fill-opacity="1" d="M 43.777344 14.578125 C 44.171875 13.4375 44.390625 12.238281 44.390625 10.972656 C 44.390625 9.707031 44.171875 8.492188 43.777344 7.367188 C 43.761719 7.335938 43.761719 7.304688 43.746094 7.273438 C 42.226562 3.039062 38.164062 0.00390625 33.421875 0.00390625 C 28.679688 0.00390625 24.617188 3.039062 23.097656 7.257812 C 23.082031 7.289062 23.066406 7.320312 23.066406 7.351562 C 22.671875 8.492188 22.449219 9.707031 22.449219 10.972656 C 22.449219 12.238281 22.671875 13.457031 23.066406 14.578125 C 23.082031 14.609375 23.082031 14.640625 23.097656 14.671875 C 24.617188 18.910156 28.679688 21.929688 33.421875 21.929688 C 38.164062 21.929688 42.226562 18.894531 43.746094 14.671875 C 43.761719 14.640625 43.761719 14.609375 43.777344 14.578125 Z M 33.421875 20.363281 C 33.011719 20.363281 32.332031 19.605469 31.761719 17.914062 C 31.492188 17.089844 31.273438 16.160156 31.113281 15.148438 L 35.714844 15.148438 C 35.554688 16.160156 35.335938 17.105469 35.066406 17.914062 C 34.511719 19.605469 33.832031 20.363281 33.421875 20.363281 Z M 30.921875 13.582031 C 30.84375 12.742188 30.8125 11.875 30.8125 10.972656 C 30.8125 10.070312 30.859375 9.203125 30.921875 8.363281 L 35.902344 8.363281 C 35.984375 9.203125 36.015625 10.070312 36.015625 10.972656 C 36.015625 11.875 35.964844 12.742188 35.902344 13.582031 Z M 24.015625 10.972656 C 24.015625 10.070312 24.140625 9.1875 24.378906 8.363281 L 29.34375 8.363281 C 29.265625 9.21875 29.230469 10.105469 29.230469 10.972656 C 29.230469 11.84375 29.265625 12.726562 29.34375 13.582031 L 24.394531 13.582031 C 24.15625 12.742188 24.015625 11.875 24.015625 10.972656 Z M 33.421875 1.566406 C 33.832031 1.566406 34.511719 2.324219 35.082031 4.015625 C 35.351562 4.839844 35.570312 5.773438 35.730469 6.785156 L 31.113281 6.785156 C 31.273438 5.757812 31.492188 4.824219 31.761719 4.015625 C 32.332031 2.324219 32.996094 1.566406 33.421875 1.566406 Z M 37.484375 8.363281 L 42.449219 8.363281 C 42.683594 9.1875 42.8125 10.070312 42.8125 10.972656 C 42.8125 11.875 42.683594 12.757812 42.449219 13.582031 L 37.484375 13.582031 C 37.5625 12.726562 37.59375 11.84375 37.59375 10.972656 C 37.59375 10.089844 37.5625 9.21875 37.484375 8.363281 Z M 41.832031 6.785156 L 37.308594 6.785156 C 37.027344 4.855469 36.550781 3.132812 35.871094 1.898438 C 38.480469 2.609375 40.644531 4.414062 41.832031 6.785156 Z M 30.957031 1.898438 C 30.277344 3.132812 29.800781 4.855469 29.515625 6.785156 L 25.011719 6.785156 C 26.195312 4.414062 28.347656 2.609375 30.957031 1.898438 Z M 25.011719 15.148438 L 29.53125 15.148438 C 29.816406 17.074219 30.292969 18.796875 30.972656 20.03125 C 28.347656 19.335938 26.195312 17.535156 25.011719 15.148438 Z M 35.871094 20.046875 C 36.550781 18.8125 37.027344 17.089844 37.308594 15.164062 L 41.832031 15.164062 C 40.644531 17.535156 38.480469 19.335938 35.871094 20.046875 Z M 35.871094 20.046875" fill="#fcde0a"/></g><path fill-rule="nonzero" fill-opacity="1" d="M 11.410156 8.769531 C 11.21875 8.769531 11.03125 8.808594 10.851562 8.882812 C 10.671875 8.957031 10.515625 9.0625 10.378906 9.199219 C 10.242188 9.335938 10.136719 9.496094 10.0625 9.671875 C 9.988281 9.851562 9.949219 10.039062 9.949219 10.234375 C 9.949219 10.425781 9.988281 10.613281 10.0625 10.792969 C 10.136719 10.96875 10.242188 11.128906 10.378906 11.265625 C 10.515625 11.402344 10.671875 11.507812 10.851562 11.582031 C 11.03125 11.65625 11.21875 11.695312 11.410156 11.695312 C 11.605469 11.695312 11.792969 11.65625 11.96875 11.582031 C 12.148438 11.507812 12.308594 11.402344 12.445312 11.265625 C 12.582031 11.128906 12.6875 10.96875 12.761719 10.792969 C 12.835938 10.613281 12.871094 10.425781 12.871094 10.234375 C 12.871094 10.039062 12.835938 9.851562 12.761719 9.671875 C 12.6875 9.496094 12.582031 9.335938 12.445312 9.199219 C 12.308594 9.0625 12.148438 8.957031 11.96875 8.882812 C 11.792969 8.808594 11.605469 8.769531 11.410156 8.769531 Z M 11.410156 10.964844 C 11.210938 10.964844 11.039062 10.890625 10.894531 10.75 C 10.753906 10.605469 10.679688 10.433594 10.679688 10.234375 C 10.679688 10.03125 10.753906 9.859375 10.894531 9.714844 C 11.039062 9.574219 11.210938 9.5 11.410156 9.5 C 11.613281 9.5 11.785156 9.574219 11.929688 9.714844 C 12.070312 9.859375 12.140625 10.03125 12.140625 10.234375 C 12.140625 10.433594 12.070312 10.605469 11.925781 10.75 C 11.785156 10.890625 11.613281 10.960938 11.410156 10.964844 Z M 11.410156 10.964844" fill="#fcde0a"/><g clip-path="url(#1ce7fae0d2)"><path fill-rule="nonzero" fill-opacity="1" d="M 21.832031 14.484375 C 20.703125 13.710938 17.347656 11.34375 17.347656 11.34375 C 17.558594 11.382812 17.765625 11.363281 17.964844 11.28125 C 18.164062 11.203125 18.324219 11.074219 18.449219 10.898438 C 18.792969 10.417969 18.671875 9.699219 18.179688 9.371094 L 12.507812 5.398438 L 12.507812 4.207031 L 12.871094 4.207031 C 13.019531 4.207031 13.15625 4.175781 13.292969 4.121094 C 13.425781 4.066406 13.542969 3.988281 13.648438 3.882812 C 13.75 3.78125 13.828125 3.664062 13.886719 3.527344 C 13.941406 3.394531 13.96875 3.253906 13.96875 3.109375 C 13.96875 2.964844 13.941406 2.824219 13.886719 2.691406 C 13.828125 2.554688 13.75 2.4375 13.648438 2.335938 C 13.542969 2.230469 13.425781 2.152344 13.292969 2.097656 C 13.15625 2.042969 13.019531 2.011719 12.871094 2.011719 L 12.507812 2.011719 L 12.507812 1.101562 C 12.507812 0.953125 12.480469 0.816406 12.425781 0.679688 C 12.367188 0.546875 12.289062 0.429688 12.1875 0.324219 C 12.082031 0.222656 11.964844 0.144531 11.832031 0.0859375 C 11.695312 0.03125 11.558594 0.00390625 11.410156 0.00390625 C 11.265625 0.00390625 11.125 0.03125 10.992188 0.0859375 C 10.859375 0.144531 10.738281 0.222656 10.636719 0.324219 C 10.535156 0.429688 10.453125 0.546875 10.398438 0.679688 C 10.34375 0.816406 10.316406 0.953125 10.316406 1.101562 L 10.316406 2.011719 L 9.949219 2.011719 C 9.804688 2.011719 9.664062 2.042969 9.53125 2.097656 C 9.398438 2.152344 9.277344 2.230469 9.175781 2.335938 C 9.074219 2.4375 8.992188 2.554688 8.9375 2.691406 C 8.882812 2.824219 8.855469 2.964844 8.855469 3.109375 C 8.855469 3.253906 8.882812 3.394531 8.9375 3.527344 C 8.992188 3.664062 9.074219 3.78125 9.175781 3.882812 C 9.277344 3.988281 9.398438 4.066406 9.53125 4.121094 C 9.664062 4.175781 9.804688 4.207031 9.949219 4.207031 L 10.316406 4.207031 L 10.316406 5.398438 L 4.640625 9.371094 C 4.152344 9.699219 4.03125 10.417969 4.375 10.898438 C 4.496094 11.074219 4.660156 11.203125 4.859375 11.28125 C 5.058594 11.363281 5.261719 11.382812 5.476562 11.34375 C 5.476562 11.34375 2.117188 13.710938 0.988281 14.484375 C 0.503906 14.816406 0.375 15.535156 0.71875 16.011719 C 0.804688 16.132812 0.910156 16.234375 1.039062 16.3125 C 1.164062 16.390625 1.300781 16.441406 1.449219 16.464844 C 1.59375 16.488281 1.738281 16.480469 1.882812 16.445312 C 2.027344 16.410156 2.160156 16.347656 2.277344 16.257812 L 2.277344 21.554688 C 2.277344 21.65625 2.316406 21.742188 2.386719 21.816406 C 2.457031 21.886719 2.542969 21.921875 2.644531 21.921875 L 20.179688 21.921875 C 20.277344 21.921875 20.367188 21.886719 20.4375 21.816406 C 20.507812 21.742188 20.542969 21.65625 20.542969 21.554688 L 20.542969 16.257812 C 20.664062 16.347656 20.792969 16.410156 20.9375 16.445312 C 21.082031 16.480469 21.226562 16.488281 21.375 16.464844 C 21.523438 16.441406 21.660156 16.390625 21.785156 16.3125 C 21.910156 16.234375 22.015625 16.132812 22.101562 16.011719 C 22.445312 15.535156 22.320312 14.816406 21.832031 14.484375 Z M 9.949219 3.472656 C 9.847656 3.472656 9.761719 3.4375 9.691406 3.367188 C 9.621094 3.296875 9.585938 3.210938 9.585938 3.109375 C 9.585938 3.007812 9.621094 2.921875 9.691406 2.851562 C 9.761719 2.78125 9.847656 2.742188 9.949219 2.742188 L 10.679688 2.742188 C 10.78125 2.742188 10.867188 2.707031 10.9375 2.636719 C 11.011719 2.566406 11.046875 2.480469 11.046875 2.378906 L 11.046875 1.101562 C 11.046875 1 11.082031 0.914062 11.152344 0.84375 C 11.222656 0.769531 11.308594 0.734375 11.410156 0.734375 C 11.511719 0.734375 11.597656 0.769531 11.667969 0.84375 C 11.742188 0.914062 11.777344 1 11.777344 1.101562 L 11.777344 2.378906 C 11.777344 2.480469 11.8125 2.566406 11.882812 2.636719 C 11.953125 2.707031 12.042969 2.742188 12.140625 2.742188 L 12.871094 2.742188 C 12.972656 2.742188 13.058594 2.78125 13.128906 2.851562 C 13.203125 2.921875 13.238281 3.007812 13.238281 3.109375 C 13.238281 3.210938 13.203125 3.296875 13.128906 3.367188 C 13.058594 3.4375 12.972656 3.472656 12.871094 3.472656 L 12.140625 3.472656 C 12.042969 3.472656 11.953125 3.511719 11.882812 3.582031 C 11.8125 3.652344 11.777344 3.738281 11.777344 3.839844 L 11.777344 4.941406 C 11.53125 4.855469 11.289062 4.855469 11.046875 4.941406 L 11.046875 3.839844 C 11.046875 3.738281 11.011719 3.652344 10.9375 3.582031 C 10.867188 3.511719 10.78125 3.472656 10.679688 3.472656 Z M 4.972656 10.480469 C 4.914062 10.398438 4.894531 10.304688 4.910156 10.207031 C 4.929688 10.105469 4.980469 10.027344 5.0625 9.96875 C 5.0625 9.96875 9.667969 6.746094 11.203125 5.671875 C 11.339844 5.574219 11.480469 5.574219 11.621094 5.671875 C 13.15625 6.746094 17.761719 9.96875 17.761719 9.96875 C 17.84375 10.027344 17.894531 10.105469 17.914062 10.207031 C 17.933594 10.304688 17.910156 10.398438 17.851562 10.480469 C 17.796875 10.5625 17.714844 10.613281 17.617188 10.632812 C 17.515625 10.648438 17.425781 10.628906 17.339844 10.570312 C 17.339844 10.570312 13.363281 7.785156 12.039062 6.855469 C 11.851562 6.722656 11.640625 6.65625 11.410156 6.65625 C 11.179688 6.65625 10.972656 6.722656 10.78125 6.855469 C 9.457031 7.785156 5.480469 10.570312 5.480469 10.570312 C 5.398438 10.625 5.308594 10.648438 5.207031 10.628906 C 5.109375 10.613281 5.03125 10.5625 4.972656 10.480469 Z M 5.933594 21.191406 L 5.019531 21.191406 L 5.019531 18.050781 C 5.019531 17.707031 5.457031 17.160156 5.933594 16.699219 Z M 5.933594 15.71875 C 5.460938 16.101562 4.289062 17.144531 4.289062 18.050781 L 4.289062 21.191406 L 3.007812 21.191406 L 3.007812 15.746094 L 5.933594 13.699219 Z M 5.933594 12.808594 C 5.933594 12.808594 2.855469 14.96875 1.828125 15.683594 C 1.433594 15.957031 1.015625 15.359375 1.40625 15.082031 C 2.539062 14.289062 5.933594 11.917969 5.933594 11.917969 Z M 13.238281 21.191406 L 9.585938 21.191406 L 9.585938 16.582031 C 9.585938 15.859375 10.625 14.695312 11.410156 14 C 12.199219 14.695312 13.238281 15.859375 13.238281 16.582031 Z M 16.160156 21.191406 L 13.96875 21.191406 L 13.96875 16.582031 C 13.96875 15.179688 11.878906 13.433594 11.640625 13.238281 C 11.488281 13.109375 11.335938 13.109375 11.179688 13.238281 C 10.941406 13.433594 8.855469 15.179688 8.855469 16.582031 L 8.855469 21.191406 L 6.664062 21.191406 L 6.664062 10.632812 L 11.203125 7.453125 C 11.339844 7.355469 11.480469 7.355469 11.621094 7.453125 L 16.160156 10.632812 Z M 17.804688 21.191406 L 16.890625 21.191406 L 16.890625 16.699219 C 17.367188 17.160156 17.804688 17.707031 17.804688 18.050781 Z M 19.8125 21.191406 L 18.535156 21.191406 L 18.535156 18.050781 C 18.535156 17.144531 17.363281 16.101562 16.890625 15.71875 L 16.890625 13.699219 L 19.8125 15.746094 Z M 20.996094 15.683594 C 19.964844 14.96875 16.890625 12.808594 16.890625 12.808594 L 16.890625 11.917969 C 16.890625 11.917969 20.285156 14.289062 21.414062 15.082031 C 21.804688 15.359375 21.386719 15.957031 20.996094 15.683594 Z M 20.996094 15.683594" fill="#fcde0a"/></g></svg>