<svg version="1.0" preserveAspectRatio="xMidYMid meet" viewBox="23.798096504559275 0 61.25759878419453 22.14980544747082" zoomAndPan="magnify" xmlns:xlink="http://www.w3.org/1999/xlink" xmlns="http://www.w3.org/2000/svg" style="max-height: 500px" width="61.25759878419453" height="22.14980544747082"><defs><clipPath id="76cee16bf6"><path clip-rule="nonzero" d="M 0.570312 0 L 22.578125 0 L 22.578125 22.007812 L 0.570312 22.007812 Z M 0.570312 0"/></clipPath><clipPath id="46c044a4a6"><path clip-rule="nonzero" d="M 23.976562 0 L 40 0 L 40 22 L 23.976562 22 Z M 23.976562 0"/></clipPath><clipPath id="df8324c18d"><path clip-rule="nonzero" d="M 69 0 L 84.871094 0 L 84.871094 22 L 69 22 Z M 69 0"/></clipPath></defs><g clip-path="url(#76cee16bf6)"><path fill-rule="nonzero" fill-opacity="1" d="M 5.0625 1.121094 C 4.234375 1.332031 3.582031 1.628906 3.082031 1.988281 C 2.015625 2.753906 1.617188 3.859375 1.648438 5.109375 C 1.6875 6.441406 2.203125 7.945312 2.949219 9.414062 C 4.152344 11.777344 5.929688 14.011719 7.269531 15.292969 C 7.285156 15.304688 7.296875 15.320312 7.3125 15.335938 C 8.597656 16.671875 10.816406 18.4375 13.164062 19.628906 C 14.632812 20.375 16.136719 20.890625 17.46875 20.929688 C 18.71875 20.960938 19.824219 20.5625 20.589844 19.496094 C 20.949219 18.996094 21.246094 18.34375 21.457031 17.515625 C 21.707031 16.535156 20.359375 15.980469 18.972656 15.625 C 18.296875 15.453125 17.640625 15.335938 17.097656 15.238281 C 16.894531 15.203125 16.707031 15.167969 16.542969 15.136719 C 15.09375 17.101562 13.308594 16.449219 13.105469 16.367188 C 11.644531 15.933594 10.132812 14.9375 8.886719 13.691406 C 7.640625 12.445312 6.644531 10.933594 6.210938 9.472656 C 6.125 9.269531 5.476562 7.484375 7.441406 6.035156 C 7.410156 5.871094 7.375 5.683594 7.339844 5.480469 C 7.242188 4.9375 7.125 4.28125 6.953125 3.605469 C 6.597656 2.21875 6.042969 0.871094 5.0625 1.121094 Z M 2.453125 1.113281 C 3.066406 0.671875 3.835938 0.320312 4.796875 0.0742188 C 6.644531 -0.394531 7.511719 1.429688 8 3.339844 C 8.167969 4 8.292969 4.707031 8.398438 5.289062 C 8.457031 5.609375 8.507812 5.886719 8.5625 6.125 C 8.625 6.351562 8.539062 6.601562 8.332031 6.730469 L 8.042969 6.273438 L 8.328125 6.730469 C 6.75 7.730469 7.144531 8.902344 7.203125 9.046875 C 7.214844 9.074219 7.226562 9.097656 7.234375 9.128906 L 7.230469 9.128906 C 7.605469 10.421875 8.507812 11.785156 9.652344 12.925781 C 10.78125 14.054688 12.125 14.953125 13.40625 15.335938 C 13.445312 15.339844 13.480469 15.351562 13.515625 15.367188 C 13.527344 15.375 14.765625 15.925781 15.828125 14.277344 C 15.941406 14.070312 16.183594 13.953125 16.425781 14.007812 L 16.300781 14.535156 L 16.425781 14.011719 C 16.667969 14.066406 16.957031 14.117188 17.289062 14.179688 C 17.871094 14.28125 18.578125 14.410156 19.238281 14.578125 C 21.148438 15.066406 22.972656 15.933594 22.503906 17.78125 C 22.257812 18.738281 21.90625 19.511719 21.464844 20.125 C 20.457031 21.523438 19.039062 22.046875 17.445312 22.003906 C 15.933594 21.964844 14.273438 21.402344 12.679688 20.589844 C 10.214844 19.339844 7.886719 17.488281 6.535156 16.085938 C 6.53125 16.082031 6.527344 16.078125 6.519531 16.074219 L 6.523438 16.070312 L 6.515625 16.0625 C 5.109375 14.714844 3.242188 12.371094 1.988281 9.898438 C 1.175781 8.304688 0.613281 6.644531 0.574219 5.132812 C 0.53125 3.539062 1.058594 2.121094 2.453125 1.113281" fill="#000000"/></g><g clip-path="url(#46c044a4a6)"><path fill-rule="nonzero" fill-opacity="1" d="M 38.902344 10.195312 C 39.09375 9.527344 39.1875 8.808594 39.1875 8.09375 C 39.1875 3.605469 35.765625 0.0234375 31.582031 0.0234375 C 27.398438 0.0234375 23.976562 3.605469 23.976562 8.046875 C 23.976562 8.761719 24.070312 9.476562 24.261719 10.144531 C 24.449219 10.957031 24.785156 11.671875 25.210938 12.34375 L 30.773438 21.507812 C 30.964844 21.792969 31.25 21.984375 31.582031 21.984375 C 31.914062 21.984375 32.199219 21.792969 32.390625 21.507812 C 32.390625 21.507812 38 12.390625 38 12.34375 C 38.425781 11.671875 38.710938 10.957031 38.902344 10.195312 Z M 36.382812 11.386719 L 31.582031 19.214844 C 31.582031 19.214844 26.78125 11.386719 26.78125 11.386719 C 26.164062 10.386719 25.878906 9.191406 25.878906 8.046875 C 25.878906 4.703125 28.445312 1.933594 31.582031 1.933594 C 34.71875 1.933594 37.285156 4.703125 37.285156 8.046875 C 37.285156 8.570312 37.238281 9.957031 36.382812 11.386719 Z M 36.382812 11.386719" fill="#000000"/></g><path fill-rule="nonzero" fill-opacity="1" d="M 31.582031 4.320312 C 29.726562 4.320312 28.253906 5.800781 28.253906 7.664062 C 28.253906 9.527344 29.726562 11.003906 31.582031 11.003906 C 33.4375 11.003906 34.910156 9.527344 34.910156 7.664062 C 34.910156 5.800781 33.4375 4.320312 31.582031 4.320312 Z M 31.582031 9.097656 C 30.773438 9.097656 30.15625 8.476562 30.15625 7.664062 C 30.15625 6.851562 30.773438 6.230469 31.582031 6.230469 C 32.390625 6.230469 33.007812 6.851562 33.007812 7.664062 C 33.007812 8.476562 32.390625 9.097656 31.582031 9.097656 Z M 31.582031 9.097656" fill="#000000"/><g clip-path="url(#df8324c18d)"><path fill-rule="nonzero" fill-opacity="1" d="M 77.21875 0.0234375 C 73.035156 0.0234375 69.613281 3.605469 69.613281 8.046875 C 69.613281 8.761719 69.707031 9.476562 69.898438 10.144531 C 70.085938 10.957031 70.421875 11.671875 70.847656 12.34375 L 76.410156 21.507812 C 76.601562 21.792969 76.886719 21.984375 77.21875 21.984375 C 77.550781 21.984375 77.835938 21.792969 78.027344 21.507812 C 78.027344 21.507812 83.636719 12.390625 83.636719 12.34375 C 84.0625 11.671875 84.347656 10.910156 84.585938 10.144531 C 84.777344 9.476562 84.871094 8.761719 84.871094 8.046875 C 84.824219 3.605469 81.402344 0.0234375 77.21875 0.0234375 Z M 82.019531 11.386719 L 77.21875 19.214844 C 77.21875 19.214844 72.417969 11.386719 72.417969 11.386719 C 71.800781 10.386719 71.515625 9.191406 71.515625 8.046875 C 71.515625 4.65625 74.082031 1.933594 77.21875 1.933594 C 80.355469 1.933594 82.921875 4.703125 82.921875 8.046875 C 82.921875 8.570312 82.875 9.957031 82.019531 11.386719 Z M 82.019531 11.386719" fill="#000000"/></g><path fill-rule="nonzero" fill-opacity="1" d="M 77.21875 4.320312 C 75.363281 4.320312 73.890625 5.800781 73.890625 7.664062 C 73.890625 9.527344 75.363281 11.003906 77.21875 11.003906 C 79.074219 11.003906 80.546875 9.527344 80.546875 7.664062 C 80.546875 5.800781 79.074219 4.320312 77.21875 4.320312 Z M 77.21875 9.097656 C 76.410156 9.097656 75.792969 8.476562 75.792969 7.664062 C 75.792969 6.851562 76.410156 6.230469 77.21875 6.230469 C 78.027344 6.230469 78.644531 6.851562 78.644531 7.664062 C 78.644531 8.476562 78.027344 9.097656 77.21875 9.097656 Z M 77.21875 9.097656" fill="#000000"/><path fill-rule="nonzero" fill-opacity="1" d="M 71.5625 17.832031 L 69.230469 16.398438 C 68.804688 16.113281 68.1875 16.257812 67.902344 16.734375 C 67.710938 17.019531 67.710938 17.402344 67.902344 17.738281 L 40.898438 17.738281 C 41.089844 17.449219 41.089844 17.066406 40.898438 16.734375 C 40.613281 16.304688 40.042969 16.160156 39.566406 16.398438 L 37.238281 17.832031 C 36.953125 18.023438 36.8125 18.308594 36.8125 18.644531 C 36.8125 18.976562 37 19.265625 37.285156 19.457031 L 39.617188 20.886719 C 40.042969 21.175781 40.660156 21.03125 40.945312 20.554688 C 41.136719 20.265625 41.136719 19.886719 40.945312 19.597656 L 67.949219 19.597656 C 67.757812 19.886719 67.757812 20.265625 67.949219 20.554688 C 68.234375 20.984375 68.804688 21.125 69.28125 20.886719 L 71.609375 19.457031 C 71.894531 19.265625 72.085938 18.976562 72.085938 18.644531 C 71.988281 18.308594 71.800781 18.023438 71.5625 17.832031 Z M 71.5625 17.832031" fill="#000000"/><path fill-rule="nonzero" fill-opacity="1" d="M 43.941406 10.527344 C 43.941406 10.792969 43.847656 11.015625 43.664062 11.203125 C 43.476562 11.390625 43.253906 11.484375 42.992188 11.484375 C 42.726562 11.484375 42.503906 11.390625 42.320312 11.203125 C 42.132812 11.015625 42.039062 10.792969 42.039062 10.527344 C 42.039062 10.265625 42.132812 10.039062 42.320312 9.851562 C 42.503906 9.667969 42.726562 9.574219 42.992188 9.574219 C 43.253906 9.574219 43.476562 9.667969 43.664062 9.851562 C 43.847656 10.039062 43.941406 10.265625 43.941406 10.527344 Z M 43.941406 10.527344" fill="#000000"/><path fill-rule="nonzero" fill-opacity="1" d="M 47.746094 10.527344 C 47.746094 10.792969 47.652344 11.015625 47.464844 11.203125 C 47.28125 11.390625 47.054688 11.484375 46.792969 11.484375 C 46.53125 11.484375 46.308594 11.390625 46.121094 11.203125 C 45.9375 11.015625 45.84375 10.792969 45.84375 10.527344 C 45.84375 10.265625 45.9375 10.039062 46.121094 9.851562 C 46.308594 9.667969 46.53125 9.574219 46.792969 9.574219 C 47.054688 9.574219 47.28125 9.667969 47.464844 9.851562 C 47.652344 10.039062 47.746094 10.265625 47.746094 10.527344 Z M 47.746094 10.527344" fill="#000000"/><path fill-rule="nonzero" fill-opacity="1" d="M 51.546875 10.527344 C 51.546875 10.792969 51.453125 11.015625 51.269531 11.203125 C 51.082031 11.390625 50.859375 11.484375 50.597656 11.484375 C 50.335938 11.484375 50.109375 11.390625 49.925781 11.203125 C 49.738281 11.015625 49.644531 10.792969 49.644531 10.527344 C 49.644531 10.265625 49.738281 10.039062 49.925781 9.851562 C 50.109375 9.667969 50.335938 9.574219 50.597656 9.574219 C 50.859375 9.574219 51.082031 9.667969 51.269531 9.851562 C 51.453125 10.039062 51.546875 10.265625 51.546875 10.527344 Z M 51.546875 10.527344" fill="#000000"/><path fill-rule="nonzero" fill-opacity="1" d="M 55.351562 10.527344 C 55.351562 10.792969 55.257812 11.015625 55.074219 11.203125 C 54.886719 11.390625 54.664062 11.484375 54.398438 11.484375 C 54.136719 11.484375 53.914062 11.390625 53.726562 11.203125 C 53.542969 11.015625 53.449219 10.792969 53.449219 10.527344 C 53.449219 10.265625 53.542969 10.039062 53.726562 9.851562 C 53.914062 9.667969 54.136719 9.574219 54.398438 9.574219 C 54.664062 9.574219 54.886719 9.667969 55.074219 9.851562 C 55.257812 10.039062 55.351562 10.265625 55.351562 10.527344 Z M 55.351562 10.527344" fill="#000000"/><path fill-rule="nonzero" fill-opacity="1" d="M 59.152344 10.527344 C 59.152344 10.792969 59.0625 11.015625 58.875 11.203125 C 58.691406 11.390625 58.464844 11.484375 58.203125 11.484375 C 57.941406 11.484375 57.714844 11.390625 57.53125 11.203125 C 57.34375 11.015625 57.253906 10.792969 57.253906 10.527344 C 57.253906 10.265625 57.34375 10.039062 57.53125 9.851562 C 57.714844 9.667969 57.941406 9.574219 58.203125 9.574219 C 58.464844 9.574219 58.691406 9.667969 58.875 9.851562 C 59.0625 10.039062 59.152344 10.265625 59.152344 10.527344 Z M 59.152344 10.527344" fill="#000000"/><path fill-rule="nonzero" fill-opacity="1" d="M 62.957031 10.527344 C 62.957031 10.792969 62.863281 11.015625 62.679688 11.203125 C 62.492188 11.390625 62.269531 11.484375 62.007812 11.484375 C 61.742188 11.484375 61.519531 11.390625 61.335938 11.203125 C 61.148438 11.015625 61.054688 10.792969 61.054688 10.527344 C 61.054688 10.265625 61.148438 10.039062 61.335938 9.851562 C 61.519531 9.667969 61.742188 9.574219 62.007812 9.574219 C 62.269531 9.574219 62.492188 9.667969 62.679688 9.851562 C 62.863281 10.039062 62.957031 10.265625 62.957031 10.527344 Z M 62.957031 10.527344" fill="#000000"/><path fill-rule="nonzero" fill-opacity="1" d="M 66.761719 10.527344 C 66.761719 10.792969 66.667969 11.015625 66.480469 11.203125 C 66.296875 11.390625 66.070312 11.484375 65.808594 11.484375 C 65.546875 11.484375 65.324219 11.390625 65.136719 11.203125 C 64.953125 11.015625 64.859375 10.792969 64.859375 10.527344 C 64.859375 10.265625 64.953125 10.039062 65.136719 9.851562 C 65.324219 9.667969 65.546875 9.574219 65.808594 9.574219 C 66.070312 9.574219 66.296875 9.667969 66.480469 9.851562 C 66.667969 10.039062 66.761719 10.265625 66.761719 10.527344 Z M 66.761719 10.527344" fill="#000000"/></svg>