<svg version="1.0" preserveAspectRatio="xMidYMid meet" viewBox="16.222358799454298 0 15.802182810368349 22.05" zoomAndPan="magnify" xmlns:xlink="http://www.w3.org/1999/xlink" xmlns="http://www.w3.org/2000/svg" style="max-height: 500px" width="15.802182810368349" height="22.05"><defs><clipPath id="188e1688a2"><path clip-rule="nonzero" d="M 0.359375 0 L 15.03125 0 L 15.03125 22 L 0.359375 22 Z M 0.359375 0"/></clipPath><clipPath id="f015ec3f8a"><path clip-rule="nonzero" d="M 16.046875 0 L 32 0 L 32 22.011719 L 16.046875 22.011719 Z M 16.046875 0"/></clipPath></defs><g clip-path="url(#188e1688a2)"><path fill-rule="nonzero" fill-opacity="1" d="M 7.695312 0.128906 C 3.640625 0.128906 0.355469 3.371094 0.355469 7.375 C 0.355469 11.378906 7.695312 21.867188 7.695312 21.867188 C 7.695312 21.867188 15.035156 11.378906 15.035156 7.375 C 15.035156 3.371094 11.75 0.128906 7.695312 0.128906 Z M 7.695312 10.808594 C 5.5625 10.808594 3.832031 9.101562 3.832031 6.992188 C 3.832031 4.886719 5.5625 3.179688 7.695312 3.179688 C 9.828125 3.179688 11.558594 4.886719 11.558594 6.992188 C 11.558594 9.101562 9.828125 10.808594 7.695312 10.808594 Z M 7.695312 10.808594" fill="#000000"/></g><g clip-path="url(#f015ec3f8a)"><path fill-rule="nonzero" fill-opacity="1" d="M 24.117188 22.011719 C 23.945312 22.011719 23.804688 21.945312 23.691406 21.820312 C 23.386719 21.484375 16.273438 13.511719 16.273438 7.878906 C 16.273438 7.359375 16.324219 6.847656 16.425781 6.339844 C 16.527344 5.832031 16.675781 5.339844 16.871094 4.863281 C 17.070312 4.386719 17.3125 3.933594 17.597656 3.503906 C 17.882812 3.074219 18.207031 2.675781 18.574219 2.308594 C 18.9375 1.945312 19.332031 1.617188 19.761719 1.328125 C 20.1875 1.042969 20.640625 0.800781 21.117188 0.601562 C 21.59375 0.402344 22.082031 0.253906 22.589844 0.152344 C 23.09375 0.0546875 23.601562 0.00390625 24.117188 0.00390625 C 24.632812 0.00390625 25.144531 0.0546875 25.648438 0.152344 C 26.152344 0.253906 26.644531 0.402344 27.117188 0.601562 C 27.59375 0.800781 28.046875 1.042969 28.472656 1.328125 C 28.902344 1.617188 29.296875 1.945312 29.664062 2.308594 C 30.027344 2.675781 30.351562 3.074219 30.636719 3.503906 C 30.925781 3.933594 31.167969 4.386719 31.363281 4.863281 C 31.558594 5.339844 31.710938 5.832031 31.808594 6.339844 C 31.910156 6.847656 31.960938 7.359375 31.960938 7.878906 C 31.960938 13.511719 24.847656 21.484375 24.546875 21.820312 C 24.429688 21.945312 24.289062 22.011719 24.117188 22.011719 Z M 24.117188 1.160156 C 23.679688 1.160156 23.242188 1.203125 22.8125 1.289062 C 22.382812 1.375 21.964844 1.503906 21.558594 1.671875 C 21.152344 1.839844 20.769531 2.046875 20.402344 2.292969 C 20.039062 2.539062 19.699219 2.816406 19.390625 3.128906 C 19.078125 3.441406 18.800781 3.78125 18.558594 4.148438 C 18.3125 4.511719 18.109375 4.898438 17.9375 5.308594 C 17.769531 5.714844 17.644531 6.136719 17.558594 6.566406 C 17.472656 7 17.429688 7.4375 17.429688 7.878906 C 17.429688 12.3125 22.582031 18.730469 24.117188 20.546875 C 25.65625 18.730469 30.808594 12.3125 30.808594 7.878906 C 30.808594 7.4375 30.765625 7 30.679688 6.566406 C 30.589844 6.136719 30.464844 5.714844 30.296875 5.308594 C 30.128906 4.898438 29.921875 4.511719 29.675781 4.148438 C 29.433594 3.78125 29.15625 3.441406 28.847656 3.128906 C 28.535156 2.816406 28.199219 2.539062 27.832031 2.292969 C 27.46875 2.046875 27.082031 1.839844 26.675781 1.671875 C 26.269531 1.503906 25.851562 1.375 25.421875 1.289062 C 24.992188 1.203125 24.558594 1.160156 24.117188 1.160156 Z M 24.117188 11.0625 C 23.695312 11.0625 23.292969 10.984375 22.902344 10.820312 C 22.515625 10.660156 22.171875 10.429688 21.875 10.128906 C 21.578125 9.832031 21.347656 9.488281 21.1875 9.097656 C 21.027344 8.707031 20.945312 8.300781 20.945312 7.878906 C 20.945312 7.457031 21.027344 7.046875 21.1875 6.660156 C 21.347656 6.269531 21.578125 5.921875 21.875 5.625 C 22.171875 5.324219 22.515625 5.097656 22.902344 4.933594 C 23.292969 4.773438 23.695312 4.691406 24.117188 4.691406 C 24.539062 4.691406 24.941406 4.773438 25.332031 4.933594 C 25.71875 5.097656 26.0625 5.324219 26.359375 5.625 C 26.65625 5.921875 26.886719 6.269531 27.046875 6.660156 C 27.210938 7.046875 27.289062 7.457031 27.289062 7.878906 C 27.289062 8.300781 27.207031 8.707031 27.046875 9.097656 C 26.886719 9.484375 26.65625 9.832031 26.359375 10.128906 C 26.0625 10.429688 25.71875 10.65625 25.332031 10.820312 C 24.941406 10.980469 24.539062 11.0625 24.117188 11.0625 Z M 24.117188 5.851562 C 23.851562 5.851562 23.59375 5.902344 23.34375 6.003906 C 23.097656 6.109375 22.878906 6.253906 22.691406 6.445312 C 22.5 6.632812 22.355469 6.851562 22.253906 7.101562 C 22.152344 7.351562 22.097656 7.609375 22.097656 7.878906 C 22.097656 8.144531 22.152344 8.40625 22.253906 8.652344 C 22.355469 8.902344 22.5 9.121094 22.691406 9.3125 C 22.878906 9.5 23.097656 9.648438 23.34375 9.75 C 23.59375 9.851562 23.851562 9.90625 24.117188 9.90625 C 24.386719 9.90625 24.644531 9.851562 24.890625 9.75 C 25.136719 9.648438 25.355469 9.5 25.546875 9.3125 C 25.734375 9.121094 25.878906 8.902344 25.984375 8.652344 C 26.085938 8.40625 26.136719 8.144531 26.136719 7.878906 C 26.136719 7.609375 26.085938 7.351562 25.980469 7.101562 C 25.878906 6.855469 25.734375 6.632812 25.542969 6.445312 C 25.355469 6.253906 25.136719 6.109375 24.890625 6.003906 C 24.644531 5.902344 24.386719 5.851562 24.117188 5.851562 Z M 24.117188 5.851562" fill="#000000"/></g></svg>