<svg version="1.0" preserveAspectRatio="xMidYMid meet" viewBox="16.80719769874477 0 14.7081589958159 21.915" zoomAndPan="magnify" xmlns:xlink="http://www.w3.org/1999/xlink" xmlns="http://www.w3.org/2000/svg" style="max-height: 500px" width="14.7081589958159" height="21.915"><defs><clipPath id="3d2a535a2e"><path clip-rule="nonzero" d="M 0 0.0117188 L 14.660156 0.0117188 L 14.660156 22 L 0 22 Z M 0 0.0117188"/></clipPath><clipPath id="b2c52dd4e1"><path clip-rule="nonzero" d="M 16.855469 0.0117188 L 31.515625 0.0117188 L 31.515625 22 L 16.855469 22 Z M 16.855469 0.0117188"/></clipPath></defs><g clip-path="url(#3d2a535a2e)"><path fill-rule="nonzero" fill-opacity="1" d="M 7.324219 0.0117188 C 3.289062 0.0117188 0.0195312 3.28125 0.0195312 7.3125 C 0.0195312 8.683594 0.398438 9.964844 1.050781 11.058594 L 7.324219 21.921875 L 13.597656 11.050781 C 14.25 9.957031 14.625 8.679688 14.625 7.316406 C 14.625 3.28125 11.355469 0.0117188 7.324219 0.0117188 Z M 7.324219 9.757812 C 5.972656 9.757812 4.878906 8.664062 4.878906 7.3125 C 4.878906 5.964844 5.972656 4.871094 7.324219 4.871094 C 8.671875 4.871094 9.765625 5.964844 9.765625 7.3125 C 9.765625 8.664062 8.671875 9.757812 7.324219 9.757812 Z M 7.324219 9.757812" fill="#fcde0a"/></g><g clip-path="url(#b2c52dd4e1)"><path fill-rule="nonzero" fill-opacity="1" d="M 24.179688 0.0117188 C 20.144531 0.0117188 16.875 3.28125 16.875 7.3125 C 16.875 8.683594 17.25 9.964844 17.90625 11.058594 L 24.175781 21.921875 L 30.453125 11.050781 C 31.105469 9.957031 31.480469 8.679688 31.480469 7.316406 C 31.480469 3.28125 28.210938 0.0117188 24.179688 0.0117188 Z M 24.179688 9.757812 C 22.828125 9.757812 21.734375 8.664062 21.734375 7.3125 C 21.734375 5.964844 22.828125 4.871094 24.179688 4.871094 C 25.527344 4.871094 26.621094 5.964844 26.621094 7.3125 C 26.621094 8.664062 25.527344 9.757812 24.179688 9.757812 Z M 24.179688 9.757812" fill="#020301"/></g></svg>